<?xml version="1.0" encoding="UTF-8" standalone="no"?>
<!-- Created with Inkscape (http://www.inkscape.org/) -->

<svg
   width="1000.0002"
   height="999.99994"
   viewBox="0 0 264.58335 264.58329"
   version="1.1"
   id="svg5"
   xml:space="preserve"
   xmlns="http://www.w3.org/2000/svg"
   xmlns:svg="http://www.w3.org/2000/svg"><defs
     id="defs2" /><g
     id="layer1"><path
       id="path1281"
       style="fill:#ffffff;stroke-width:0.666801"
       d="M 264.56898,134.19214 C 265.30249,84.312151 237.87965,37.139625 190.82189,13.577348 153.53365,-5.0932397 107.37091,-4.4684797 70.470865,15.207228 30.394952,36.576355 4.3561656,76.039162 0.17419401,121.74438 c -0.53525716,5.84989 0.24134286,25.08774 1.26464289,31.32794 7.5153288,45.82954 37.3525311,83.796 79.8309181,101.58037 16.485342,6.90186 31.990885,9.92713 50.901655,9.93059 14.62668,0.003 24.17914,-1.30786 37.53284,-5.14874 40.20484,-11.56402 73.73807,-43.45782 87.4394,-83.16521 4.80734,-13.93204 7.21993,-28.1108 7.42533,-42.07719 z m -7.69273,-2.11633 c 0.0246,13.30448 -0.1685,16.30025 -1.46113,22.66328 -3.9595,19.49099 -10.90443,35.64567 -22.01073,51.201 -5.05594,7.08129 -19.06596,21.23977 -26.16217,26.43903 -17.57317,12.87554 -36.3932,20.5633 -58.06172,23.7189 -11.27853,1.6425 -30.70527,1.0411 -41.71086,-1.29107 C 48.270377,242.26209 6.5327656,190.84512 7.1887942,131.26899 7.2363656,126.94685 7.5262228,121.25818 7.8329228,118.62782 13.791337,67.526963 50.014907,25.431586 99.751054,11.809428 111.42953,8.6108193 116.07531,8.0931493 132.83844,8.1215293 c 13.93158,0.0236 16.88238,0.21709 22.74134,1.4911 25.92181,5.6367187 45.85548,16.0085577 63.4438,33.0117267 18.69647,18.074389 30.45757,39.502581 36.01481,65.617404 1.66139,7.80716 1.81176,9.7571 1.83786,23.83405 z m -18.31284,-11.30729 c 0,-3.87077 -2.51559,-15.33921 -4.99799,-22.783627 -5.4905,-16.465442 -14.69783,-30.78321 -27.79983,-43.230928 -16.81926,-15.97929 -37.25901,-25.665168 -60.52527,-28.681608 l -3.60778,-0.468011 0.44546,6.576371 c 0.24497,3.616808 1.02989,9.333899 1.74405,12.704639 9.17657,43.311637 43.97083,73.458594 89.90516,77.896884 l 4.8362,0.46727 z m 0,20.78835 -5.16935,0.45765 c -34.51605,3.05474 -64.87448,22.67144 -80.17146,51.80407 -6.8644,13.07307 -11.12276,28.56097 -11.31453,41.15077 l -0.065,4.24153 3.16898,-0.437 c 17.66073,-2.4374 32.44207,-7.96317 46.72138,-17.46584 23.21468,-15.44903 39.83599,-40.31614 45.45599,-68.00692 0.75576,-3.7237 1.37397,-7.88961 1.37397,-9.25737 z m -43.38178,-9.1474 c -0.001,-0.1833 -3.25261,-1.88575 -7.22437,-3.78239 -11.60795,-5.54317 -20.50888,-11.95746 -30.82034,-22.21082 -9.92832,-9.872367 -16.79211,-19.290367 -22.03808,-30.237648 l -2.8299,-5.905358 -3.5834,7.173525 c -5.88577,11.780728 -13.73297,22.230185 -24.0606,32.041011 -7.814,7.42297 -21.348766,16.39572 -31.201545,20.685 -2.35774,1.02643 -4.26532,2.02483 -4.23934,2.21822 0.0258,0.19338 3.85412,2.20073 8.5075,4.4615 21.950385,10.66411 39.879255,28.40964 51.005055,50.48272 l 3.60259,7.14698 2.77157,-5.77249 c 10.84471,-22.58504 31.04555,-42.5145 53.73894,-53.01687 3.50638,-1.62274 6.37355,-3.10007 6.37192,-3.28338 z M 123.121,25.610256 l -3.81237,0.456201 c -16.88125,2.01993 -34.844576,8.960698 -48.835555,18.869089 -7.197779,5.097468 -19.575938,17.113697 -24.026618,23.323977 -7.835649,10.933399 -13.547176,22.53837 -16.978776,34.499117 -1.890043,6.58768 -3.503829,14.72184 -3.616629,18.23058 l -0.07157,2.24479 5.169357,-0.45914 c 38.278655,-3.39816 70.487901,-26.362834 84.272701,-60.084847 4.30633,-10.534779 6.08953,-18.446297 7.55236,-33.506276 z m -0.35383,210.743904 c 0.001,-5.06711 -1.69746,-16.1842 -3.94093,-24.04588 -11.1104,-38.93412 -45.641145,-66.55575 -87.877488,-70.29376 -6.0623,-0.53653 -5.8251,-1.0081 -4.182457,8.31917 5.550629,31.51839 24.110442,58.37543 51.45711,74.46 11.197678,6.58617 22.677395,10.78143 35.490375,12.9704 4.17119,0.71257 7.97015,1.29547 8.44176,1.29547 0.4217,0 0.61096,-1.01634 0.61163,-2.7054 z" /></g></svg>
